<svg width="50" height="50" viewBox="0 0 50 50" fill="none" xmlns="http://www.w3.org/2000/svg">
<g id="arrow-up-contained-02">
<g id="Icon">
<path d="M38.2583 11.7417C45.5806 19.0641 45.5806 30.9359 38.2583 38.2583C30.9359 45.5806 19.0641 45.5806 11.7417 38.2583C4.41942 30.9359 4.41942 19.0641 11.7417 11.7417C19.0641 4.41942 30.9359 4.41942 38.2583 11.7417Z" fill="#ACD1AD"/>
<path d="M15.8243 22.5519C15.2351 23.043 15.1554 23.9187 15.6465 24.508C16.1376 25.0973 17.0133 25.1769 17.6026 24.6858L15.8243 22.5519ZM24.9999 16.7135L25.8891 15.6465C25.374 15.2173 24.6259 15.2173 24.1108 15.6465L24.9999 16.7135ZM32.3973 24.6858C32.9865 25.1769 33.8623 25.0973 34.3534 24.508C34.8444 23.9187 34.7648 23.043 34.1756 22.5519L32.3973 24.6858ZM23.6111 33.2864C23.6111 34.0535 24.2329 34.6753 24.9999 34.6753C25.767 34.6753 26.3888 34.0535 26.3888 33.2864H23.6111ZM17.6026 24.6858L25.8891 17.7804L24.1108 15.6465L15.8243 22.5519L17.6026 24.6858ZM24.1108 17.7804L32.3973 24.6858L34.1756 22.5519L25.8891 15.6465L24.1108 17.7804ZM23.6111 16.7135V33.2864H26.3888V16.7135H23.6111ZM37.2762 12.7238C44.0561 19.5038 44.0561 30.4962 37.2762 37.2762L39.2403 39.2403C47.1051 31.3756 47.1051 18.6244 39.2403 10.7597L37.2762 12.7238ZM37.2762 37.2762C30.4962 44.0561 19.5038 44.0561 12.7238 37.2762L10.7597 39.2403C18.6244 47.1051 31.3756 47.1051 39.2403 39.2403L37.2762 37.2762ZM12.7238 37.2762C5.94391 30.4962 5.94391 19.5038 12.7238 12.7238L10.7597 10.7597C2.89493 18.6244 2.89493 31.3756 10.7597 39.2403L12.7238 37.2762ZM12.7238 12.7238C19.5038 5.94391 30.4962 5.94391 37.2762 12.7238L39.2403 10.7597C31.3756 2.89493 18.6244 2.89493 10.7597 10.7597L12.7238 12.7238Z" fill="white"/>
</g>
</g>
</svg>
