<svg width="24" height="24" viewBox="0 0 24 24" fill="none" xmlns="http://www.w3.org/2000/svg">
<path d="M3 9.41605C3 9.04665 3.18802 8.7001 3.50457 8.48603L11.3046 3.21117C11.7209 2.92961 12.2791 2.92961 12.6954 3.21117L20.4954 8.48603C20.812 8.70011 21 9.04665 21 9.41605V19.2882C21 20.2336 20.1941 21 19.2 21H4.8C3.80589 21 3 20.2336 3 19.2882V9.41605Z" fill="black"/>
<path d="M9 21V14.1528C9 13.5226 9.53726 13.0116 10.2 13.0116H13.8C14.4627 13.0116 15 13.5226 15 14.1528V21M11.3046 3.21117L3.50457 8.48603C3.18802 8.7001 3 9.04665 3 9.41605V19.2882C3 20.2336 3.80589 21 4.8 21H19.2C20.1941 21 21 20.2336 21 19.2882V9.41605C21 9.04665 20.812 8.70011 20.4954 8.48603L12.6954 3.21117C12.2791 2.92961 11.7209 2.92961 11.3046 3.21117Z" stroke="black" stroke-linecap="round"/>
<path d="M15 21H9V14C9 13.4477 9.44772 13 10 13H14C14.5523 13 15 13.4477 15 14V21Z" fill="white" stroke="black" stroke-linejoin="round"/>
</svg>
